<mxfile host="Electron" modified="2024-01-24T15:05:46.411Z" agent="Mozilla/5.0 (Windows NT 10.0; Win64; x64) AppleWebKit/537.36 (KHTML, like Gecko) draw.io/22.1.21 Chrome/120.0.6099.109 Electron/28.1.0 Safari/537.36" etag="ZCkrl21b23vLReNfCVM7" version="22.1.21" type="device">
  <diagram name="Page-1" id="RvRizIwl0K3VuQbdUPNN">
    <mxGraphModel dx="1036" dy="606" grid="0" gridSize="10" guides="1" tooltips="1" connect="1" arrows="1" fold="1" page="1" pageScale="1" pageWidth="4000" pageHeight="1100" math="0" shadow="0">
      <root>
        <mxCell id="0" />
        <mxCell id="1" parent="0" />
        <mxCell id="02DX1E38rB1Xm01BbnwN-13" style="edgeStyle=orthogonalEdgeStyle;rounded=0;orthogonalLoop=1;jettySize=auto;html=1;exitX=1;exitY=0.5;exitDx=0;exitDy=0;" edge="1" parent="1" source="02DX1E38rB1Xm01BbnwN-1">
          <mxGeometry relative="1" as="geometry">
            <mxPoint x="500.00006103515625" y="225" as="targetPoint" />
          </mxGeometry>
        </mxCell>
        <mxCell id="02DX1E38rB1Xm01BbnwN-1" value="" style="rounded=0;whiteSpace=wrap;html=1;" vertex="1" parent="1">
          <mxGeometry x="27" y="81" width="372" height="288" as="geometry" />
        </mxCell>
        <mxCell id="02DX1E38rB1Xm01BbnwN-2" value="viral content generator" style="text;html=1;strokeColor=none;fillColor=none;align=center;verticalAlign=middle;whiteSpace=wrap;rounded=0;" vertex="1" parent="1">
          <mxGeometry x="141.5" y="111" width="143" height="21" as="geometry" />
        </mxCell>
        <mxCell id="02DX1E38rB1Xm01BbnwN-3" value="select a video template" style="text;html=1;strokeColor=none;fillColor=none;align=center;verticalAlign=middle;whiteSpace=wrap;rounded=0;" vertex="1" parent="1">
          <mxGeometry x="140.5" y="156" width="144" height="16" as="geometry" />
        </mxCell>
        <mxCell id="02DX1E38rB1Xm01BbnwN-4" value="" style="rounded=0;whiteSpace=wrap;html=1;" vertex="1" parent="1">
          <mxGeometry x="39" y="186" width="73" height="121" as="geometry" />
        </mxCell>
        <mxCell id="02DX1E38rB1Xm01BbnwN-6" value="" style="rounded=0;whiteSpace=wrap;html=1;" vertex="1" parent="1">
          <mxGeometry x="130" y="186" width="73" height="121" as="geometry" />
        </mxCell>
        <mxCell id="02DX1E38rB1Xm01BbnwN-7" value="" style="rounded=0;whiteSpace=wrap;html=1;fillColor=#d5e8d4;strokeColor=#82b366;glass=0;shadow=1;" vertex="1" parent="1">
          <mxGeometry x="221" y="186" width="73" height="121" as="geometry" />
        </mxCell>
        <mxCell id="02DX1E38rB1Xm01BbnwN-8" value="" style="rounded=0;whiteSpace=wrap;html=1;" vertex="1" parent="1">
          <mxGeometry x="308" y="186" width="73" height="121" as="geometry" />
        </mxCell>
        <mxCell id="02DX1E38rB1Xm01BbnwN-9" value="Next" style="rounded=1;whiteSpace=wrap;html=1;fillColor=#f8cecc;strokeColor=#b85450;" vertex="1" parent="1">
          <mxGeometry x="306" y="328" width="75" height="33" as="geometry" />
        </mxCell>
        <mxCell id="02DX1E38rB1Xm01BbnwN-10" value="" style="ellipse;whiteSpace=wrap;html=1;aspect=fixed;fillColor=#dae8fc;strokeColor=#6c8ebf;" vertex="1" parent="1">
          <mxGeometry x="266" y="279" width="23" height="23" as="geometry" />
        </mxCell>
        <mxCell id="02DX1E38rB1Xm01BbnwN-11" value="" style="verticalLabelPosition=bottom;verticalAlign=top;html=1;shape=mxgraph.basic.tick" vertex="1" parent="1">
          <mxGeometry x="271.5" y="285.5" width="12" height="10" as="geometry" />
        </mxCell>
        <mxCell id="02DX1E38rB1Xm01BbnwN-15" value="" style="rounded=0;whiteSpace=wrap;html=1;" vertex="1" parent="1">
          <mxGeometry x="501" y="81" width="389" height="291" as="geometry" />
        </mxCell>
        <mxCell id="02DX1E38rB1Xm01BbnwN-16" value="Add script" style="text;html=1;strokeColor=none;fillColor=none;align=center;verticalAlign=middle;whiteSpace=wrap;rounded=0;" vertex="1" parent="1">
          <mxGeometry x="665.5" y="102" width="60" height="30" as="geometry" />
        </mxCell>
        <mxCell id="02DX1E38rB1Xm01BbnwN-17" value="" style="endArrow=none;html=1;rounded=0;" edge="1" parent="1">
          <mxGeometry width="50" height="50" relative="1" as="geometry">
            <mxPoint x="695" y="132" as="sourcePoint" />
            <mxPoint x="695" y="260" as="targetPoint" />
          </mxGeometry>
        </mxCell>
        <mxCell id="02DX1E38rB1Xm01BbnwN-18" value="manual" style="text;html=1;strokeColor=none;fillColor=none;align=center;verticalAlign=middle;whiteSpace=wrap;rounded=0;" vertex="1" parent="1">
          <mxGeometry x="574" y="128" width="60" height="30" as="geometry" />
        </mxCell>
        <mxCell id="02DX1E38rB1Xm01BbnwN-19" value="enter script" style="rounded=1;whiteSpace=wrap;html=1;" vertex="1" parent="1">
          <mxGeometry x="545.5" y="158" width="120" height="60" as="geometry" />
        </mxCell>
        <mxCell id="02DX1E38rB1Xm01BbnwN-20" value="OR" style="text;html=1;strokeColor=none;fillColor=none;align=center;verticalAlign=middle;whiteSpace=wrap;rounded=0;" vertex="1" parent="1">
          <mxGeometry x="588.5" y="228" width="34" height="14" as="geometry" />
        </mxCell>
        <mxCell id="02DX1E38rB1Xm01BbnwN-21" value="upload txt file" style="rounded=0;whiteSpace=wrap;html=1;" vertex="1" parent="1">
          <mxGeometry x="555.5" y="252" width="100" height="27" as="geometry" />
        </mxCell>
        <mxCell id="02DX1E38rB1Xm01BbnwN-22" value="Let chat GPT write the script" style="text;html=1;strokeColor=none;fillColor=none;align=center;verticalAlign=middle;whiteSpace=wrap;rounded=0;" vertex="1" parent="1">
          <mxGeometry x="725.5" y="146" width="122" height="30" as="geometry" />
        </mxCell>
        <mxCell id="02DX1E38rB1Xm01BbnwN-23" value="coming soon" style="rounded=1;whiteSpace=wrap;html=1;" vertex="1" parent="1">
          <mxGeometry x="728" y="192" width="120" height="60" as="geometry" />
        </mxCell>
      </root>
    </mxGraphModel>
  </diagram>
</mxfile>
